<svg width="64" height="64" viewBox="0 0 64 64" fill="none" xmlns="http://www.w3.org/2000/svg">
<circle cx="32" cy="32" r="32" fill="#136E99"/>
<path d="M33.1937 41H26.9643L26.2248 38.5538H18.943L18.2034 41H11.9741L18.9714 22.0276H26.1963L33.1937 41ZM24.7457 33.7751L22.5839 27.0907L20.4221 33.7751H24.7457ZM39.9623 41H34.2166V22.0276H44.3428C48.7801 22.0276 51.1694 24.9858 51.1694 28.5413C51.1694 32.0684 48.7801 34.9129 44.3428 34.9129H39.9623V41ZM45.3383 28.4844C45.3383 27.4604 44.5703 26.8062 43.6032 26.8062H39.9623V30.1342H43.6032C44.5703 30.1342 45.3383 29.48 45.3383 28.4844Z" fill="white"/>
</svg>
