<svg width="64" height="64" viewBox="0 0 64 64" fill="none" xmlns="http://www.w3.org/2000/svg">
<circle cx="32" cy="32" r="32" fill="#136E99"/>
<path d="M16.1944 39.8053L18.5269 35.4249C19.1527 35.8516 20.006 36.2782 20.9731 36.2782C22.2247 36.2782 23.078 35.4818 23.078 34.1449V22.0276H28.8238V34.2302C28.8238 39.0942 25.894 41.3413 21.4851 41.3413C19.6362 41.3413 17.6736 40.9431 16.1944 39.8053ZM30.4464 38.3262L33.4331 34.0596C34.8553 35.4249 36.9887 36.5058 39.5487 36.5058C40.6296 36.5058 41.6536 36.136 41.6536 35.3964C41.6536 34.6569 40.8571 34.2871 38.9798 33.9458C35.8509 33.3769 31.0722 32.6373 31.0722 27.8871C31.0722 24.6729 33.746 21.7431 38.9513 21.7431C42.0518 21.7431 44.8393 22.6249 47.0011 24.3884L43.9291 28.456C42.2793 27.2044 40.146 26.5787 38.6384 26.5787C37.2162 26.5787 36.9033 27.0907 36.9033 27.5742C36.9033 28.3138 37.6713 28.5698 39.6909 28.9111C42.8198 29.4516 47.4562 30.3618 47.4562 34.7422C47.4562 38.9236 44.3558 41.3413 39.2642 41.3413C35.2251 41.3413 32.466 40.1467 30.4464 38.3262Z" fill="white"/>
</svg>
