<svg width="64" height="64" viewBox="0 0 64 64" fill="none" xmlns="http://www.w3.org/2000/svg">
<circle cx="32" cy="32" r="32" fill="#136E99"/>
<path d="M13.8214 38.3262L16.8081 34.0596C18.2303 35.4249 20.3637 36.5058 22.9237 36.5058C24.0046 36.5058 25.0286 36.136 25.0286 35.3964C25.0286 34.6569 24.2321 34.2871 22.3548 33.9458C19.2259 33.3769 14.4472 32.6373 14.4472 27.8871C14.4472 24.6729 17.121 21.7431 22.3263 21.7431C25.4268 21.7431 28.2143 22.6249 30.3761 24.3884L27.3041 28.456C25.6543 27.2044 23.521 26.5787 22.0134 26.5787C20.5912 26.5787 20.2783 27.0907 20.2783 27.5742C20.2783 28.3138 21.0463 28.5698 23.0659 28.9111C26.1948 29.4516 30.8312 30.3618 30.8312 34.7422C30.8312 38.9236 27.7308 41.3413 22.6392 41.3413C18.6001 41.3413 15.841 40.1467 13.8214 38.3262ZM50.7788 41H43.7814L39.5148 34.3156L38.4623 35.7378V41H32.7166V22.0276H38.4623V29.1387L43.4401 22.0276H50.4659L43.2979 30.8453L50.7788 41Z" fill="white"/>
</svg>
